<svg xmlns="http://www.w3.org/2000/svg" viewBox="0 0 1400 860" role="img" aria-labelledby="title desc">
<title id="title">AegisIQ Equity research workspace</title><desc id="desc">A structured market research workspace with charts, catalyst review, research grades, and risk controls.</desc>
<defs><linearGradient id="bg" x1="0" y1="0" x2="1" y2="1"><stop stop-color="#07152d"/><stop offset="1" stop-color="#030914"/></linearGradient><linearGradient id="area" x1="0" y1="0" x2="0" y2="1"><stop stop-color="#5b8cff" stop-opacity=".45"/><stop offset="1" stop-color="#5b8cff" stop-opacity="0"/></linearGradient></defs>
<rect width="1400" height="860" rx="38" fill="url(#bg)"/><g opacity=".12" stroke="#9db5e4"><path d="M0 120h1400M0 240h1400M0 360h1400M0 480h1400M0 600h1400M0 720h1400"/><path d="M140 0v860M280 0v860M420 0v860M560 0v860M700 0v860M840 0v860M980 0v860M1120 0v860M1260 0v860"/></g>
<g><rect x="50" y="45" width="1300" height="770" rx="28" fill="#0a1429" stroke="#263d70"/><rect x="50" y="45" width="1300" height="72" rx="28" fill="#0e1c37"/><circle cx="88" cy="81" r="9" fill="#5b8cff"/><text x="112" y="89" fill="#fff" font-family="Segoe UI,Arial,sans-serif" font-size="23" font-weight="700">AegisIQ Equity</text><text x="1040" y="88" fill="#8fa6cf" font-family="Segoe UI,Arial,sans-serif" font-size="15">Research workspace</text><rect x="1195" y="65" width="126" height="34" rx="17" fill="#17345f"/><text x="1258" y="87" text-anchor="middle" fill="#8db1ff" font-family="Segoe UI,Arial,sans-serif" font-size="13">GOVERNED</text>
<rect x="74" y="140" width="160" height="645" rx="18" fill="#071125" stroke="#1b2c50"/><text x="98" y="182" fill="#7f93ba" font-family="Segoe UI,Arial,sans-serif" font-size="13">WORKSPACE</text><g fill="#dce7ff" font-family="Segoe UI,Arial,sans-serif" font-size="15"><text x="98" y="231">Overview</text><text x="98" y="281">Research</text><text x="98" y="331">Stock Lens</text><text x="98" y="381">Option Lens</text><text x="98" y="431">Catalysts</text><text x="98" y="481">Valuation</text><text x="98" y="531">Approvals</text><text x="98" y="581">Exports</text></g><rect x="86" y="254" width="136" height="40" rx="10" fill="#132d5a"/><text x="98" y="281" fill="#fff" font-family="Segoe UI,Arial,sans-serif" font-size="15">Research</text>
<rect x="258" y="140" width="690" height="400" rx="20" fill="#081329" stroke="#1e3767"/><text x="286" y="180" fill="#8fa6cf" font-family="Segoe UI,Arial,sans-serif" font-size="14">NASDAQ · AAPL</text><text x="286" y="220" fill="#fff" font-family="Segoe UI,Arial,sans-serif" font-size="31" font-weight="700">Research overview</text><text x="817" y="181" fill="#69d8b4" font-family="Segoe UI,Arial,sans-serif" font-size="15">Research grade A-</text><path d="M290 455L342 423 397 438 456 361 516 382 571 308 627 334 685 259 741 289 801 222 861 246 916 189" fill="none" stroke="#5b8cff" stroke-width="6" stroke-linecap="round"/><path d="M290 455L342 423 397 438 456 361 516 382 571 308 627 334 685 259 741 289 801 222 861 246 916 189V500H290Z" fill="url(#area)"/><g fill="#8299c1" font-family="Segoe UI,Arial,sans-serif" font-size="12"><text x="290" y="518">JAN</text><text x="442" y="518">MAR</text><text x="595" y="518">MAY</text><text x="748" y="518">JUL</text><text x="887" y="518">SEP</text></g>
<rect x="970" y="140" width="356" height="190" rx="20" fill="#081329" stroke="#1e3767"/><text x="996" y="178" fill="#8fa6cf" font-family="Segoe UI,Arial,sans-serif" font-size="14">CATALYST REVIEW</text><text x="996" y="216" fill="#fff" font-family="Segoe UI,Arial,sans-serif" font-size="21" font-weight="700">Earnings revision</text><rect x="996" y="240" width="104" height="28" rx="14" fill="#123b35"/><text x="1048" y="259" text-anchor="middle" fill="#6be1bc" font-family="Segoe UI,Arial,sans-serif" font-size="12">POSITIVE</text><text x="996" y="300" fill="#8399bf" font-family="Segoe UI,Arial,sans-serif" font-size="13">Source-aware review · confidence 82%</text>
<rect x="970" y="350" width="356" height="190" rx="20" fill="#081329" stroke="#1e3767"/><text x="996" y="388" fill="#8fa6cf" font-family="Segoe UI,Arial,sans-serif" font-size="14">RISK CONTROLS</text><g font-family="Segoe UI,Arial,sans-serif" font-size="14"><text x="996" y="430" fill="#e5edff">Valuation risk</text><text x="1240" y="430" fill="#f2b035">Moderate</text><text x="996" y="466" fill="#e5edff">Event risk</text><text x="1240" y="466" fill="#f2b035">Elevated</text><text x="996" y="502" fill="#e5edff">Approval state</text><text x="1240" y="502" fill="#6be1bc">Reviewed</text></g>
<rect x="258" y="565" width="1068" height="220" rx="20" fill="#081329" stroke="#1e3767"/><text x="286" y="603" fill="#8fa6cf" font-family="Segoe UI,Arial,sans-serif" font-size="14">RESEARCH PACKET</text><g><rect x="286" y="630" width="240" height="118" rx="14" fill="#0d1c38"/><text x="308" y="664" fill="#fff" font-family="Segoe UI,Arial,sans-serif" font-size="16" font-weight="700">Investment thesis</text><text x="308" y="694" fill="#8399bf" font-family="Segoe UI,Arial,sans-serif" font-size="13">Catalysts, risks, evidence</text><text x="308" y="722" fill="#5b8cff" font-family="Segoe UI,Arial,sans-serif" font-size="13">12 sources linked</text><rect x="545" y="630" width="240" height="118" rx="14" fill="#0d1c38"/><text x="567" y="664" fill="#fff" font-family="Segoe UI,Arial,sans-serif" font-size="16" font-weight="700">Valuation context</text><text x="567" y="694" fill="#8399bf" font-family="Segoe UI,Arial,sans-serif" font-size="13">DCF · comparables · scenarios</text><text x="567" y="722" fill="#5b8cff" font-family="Segoe UI,Arial,sans-serif" font-size="13">3 cases reviewed</text><rect x="804" y="630" width="240" height="118" rx="14" fill="#0d1c38"/><text x="826" y="664" fill="#fff" font-family="Segoe UI,Arial,sans-serif" font-size="16" font-weight="700">Stock Lens</text><text x="826" y="694" fill="#8399bf" font-family="Segoe UI,Arial,sans-serif" font-size="13">Trend · volume · VWAP</text><text x="826" y="722" fill="#6be1bc" font-family="Segoe UI,Arial,sans-serif" font-size="13">Confirmation present</text><rect x="1063" y="630" width="237" height="118" rx="14" fill="#0d1c38"/><text x="1085" y="664" fill="#fff" font-family="Segoe UI,Arial,sans-serif" font-size="16" font-weight="700">Governed export</text><text x="1085" y="694" fill="#8399bf" font-family="Segoe UI,Arial,sans-serif" font-size="13">PDF · audit trail · disclaimer</text><text x="1085" y="722" fill="#f2b035" font-family="Segoe UI,Arial,sans-serif" font-size="13">Ready for approval</text></g></g>
</svg>
