<svg xmlns="http://www.w3.org/2000/svg" viewBox="0 0 1400 860" role="img" aria-labelledby="title desc">
<title id="title">AegisIQ Investor Portal workspace</title><desc id="desc">A secure investor operations portal showing onboarding, document access, subscription review, approvals, and closing status.</desc>
<defs><linearGradient id="bg" x1="0" y1="0" x2="1" y2="1"><stop stop-color="#1b0d2d"/><stop offset=".45" stop-color="#0c1428"/><stop offset="1" stop-color="#030914"/></linearGradient></defs>
<rect width="1400" height="860" rx="38" fill="url(#bg)"/><g opacity=".08" stroke="#d5a2ff"><path d="M0 120h1400M0 240h1400M0 360h1400M0 480h1400M0 600h1400M0 720h1400"/><path d="M140 0v860M280 0v860M420 0v860M560 0v860M700 0v860M840 0v860M980 0v860M1120 0v860M1260 0v860"/></g>
<g><rect x="50" y="45" width="1300" height="770" rx="28" fill="#0a1429" stroke="#674081"/><rect x="50" y="45" width="1300" height="72" rx="28" fill="#17162f"/><circle cx="88" cy="81" r="9" fill="#c77dff"/><text x="112" y="89" fill="#fff" font-family="Segoe UI,Arial,sans-serif" font-size="23" font-weight="700">AegisIQ Investor Portal</text><rect x="1150" y="65" width="170" height="34" rx="17" fill="#342044"/><text x="1235" y="87" text-anchor="middle" fill="#d49cff" font-family="Segoe UI,Arial,sans-serif" font-size="13">OFFERING ACTIVE</text>
<rect x="74" y="140" width="190" height="645" rx="18" fill="#071125" stroke="#39254a"/><text x="98" y="182" fill="#8fa0c0" font-family="Segoe UI,Arial,sans-serif" font-size="13">OPERATIONS</text><g fill="#dce4f4" font-family="Segoe UI,Arial,sans-serif" font-size="15"><text x="98" y="231">Dashboard</text><text x="98" y="281">Investors</text><text x="98" y="331">Documents</text><text x="98" y="381">Qualification</text><text x="98" y="431">Subscriptions</text><text x="98" y="481">Approvals</text><text x="98" y="531">Communications</text><text x="98" y="581">Closing</text><text x="98" y="631">Audit trail</text></g><rect x="86" y="204" width="166" height="40" rx="10" fill="#342044"/><text x="98" y="231" fill="#fff" font-family="Segoe UI,Arial,sans-serif" font-size="15">Dashboard</text>
<g><rect x="286" y="140" width="330" height="152" rx="20" fill="#081329" stroke="#49315d"/><text x="312" y="177" fill="#8fa0c0" font-family="Segoe UI,Arial,sans-serif" font-size="13">CAPITAL SUBSCRIBED</text><text x="312" y="224" fill="#fff" font-family="Segoe UI,Arial,sans-serif" font-size="34" font-weight="700">$18.6M</text><text x="312" y="257" fill="#d49cff" font-family="Segoe UI,Arial,sans-serif" font-size="14">62% of target</text><rect x="638" y="140" width="330" height="152" rx="20" fill="#081329" stroke="#49315d"/><text x="664" y="177" fill="#8fa0c0" font-family="Segoe UI,Arial,sans-serif" font-size="13">INVESTORS IN REVIEW</text><text x="664" y="224" fill="#fff" font-family="Segoe UI,Arial,sans-serif" font-size="34" font-weight="700">27</text><text x="664" y="257" fill="#f2b035" font-family="Segoe UI,Arial,sans-serif" font-size="14">5 require issuer action</text><rect x="990" y="140" width="336" height="152" rx="20" fill="#081329" stroke="#49315d"/><text x="1016" y="177" fill="#8fa0c0" font-family="Segoe UI,Arial,sans-serif" font-size="13">DOCUMENT CONTROL</text><text x="1016" y="224" fill="#fff" font-family="Segoe UI,Arial,sans-serif" font-size="34" font-weight="700">14 live files</text><text x="1016" y="257" fill="#69d8b4" font-family="Segoe UI,Arial,sans-serif" font-size="14">Permissioned and versioned</text></g>
<rect x="286" y="318" width="1040" height="190" rx="20" fill="#081329" stroke="#49315d"/><text x="312" y="356" fill="#8fa0c0" font-family="Segoe UI,Arial,sans-serif" font-size="13">INVESTOR JOURNEY</text><g transform="translate(316 395)"><g><rect width="185" height="74" rx="14" fill="#15152e" stroke="#4d3470"/><text x="92" y="31" text-anchor="middle" fill="#d49cff" font-family="Segoe UI,Arial,sans-serif" font-size="13">1 · INVITE</text><text x="92" y="55" text-anchor="middle" fill="#fff" font-family="Segoe UI,Arial,sans-serif" font-size="15" font-weight="700">Controlled access</text></g><path d="M185 37h42" stroke="#c77dff" stroke-width="3"/><g transform="translate(227)"><rect width="185" height="74" rx="14" fill="#15152e" stroke="#4d3470"/><text x="92" y="31" text-anchor="middle" fill="#d49cff" font-family="Segoe UI,Arial,sans-serif" font-size="13">2 · QUALIFY</text><text x="92" y="55" text-anchor="middle" fill="#fff" font-family="Segoe UI,Arial,sans-serif" font-size="15" font-weight="700">Eligibility review</text></g><path d="M412 37h42" stroke="#c77dff" stroke-width="3"/><g transform="translate(454)"><rect width="185" height="74" rx="14" fill="#15152e" stroke="#4d3470"/><text x="92" y="31" text-anchor="middle" fill="#d49cff" font-family="Segoe UI,Arial,sans-serif" font-size="13">3 · SUBSCRIBE</text><text x="92" y="55" text-anchor="middle" fill="#fff" font-family="Segoe UI,Arial,sans-serif" font-size="15" font-weight="700">Documents &amp; funds</text></g><path d="M639 37h42" stroke="#c77dff" stroke-width="3"/><g transform="translate(681)"><rect width="185" height="74" rx="14" fill="#15152e" stroke="#4d3470"/><text x="92" y="31" text-anchor="middle" fill="#d49cff" font-family="Segoe UI,Arial,sans-serif" font-size="13">4 · APPROVE</text><text x="92" y="55" text-anchor="middle" fill="#fff" font-family="Segoe UI,Arial,sans-serif" font-size="15" font-weight="700">Issuer decision</text></g><path d="M866 37h42" stroke="#c77dff" stroke-width="3"/><g transform="translate(908)"><rect width="92" height="74" rx="14" fill="#342044" stroke="#c77dff"/><text x="46" y="31" text-anchor="middle" fill="#fff" font-family="Segoe UI,Arial,sans-serif" font-size="13">5 · CLOSE</text><text x="46" y="55" text-anchor="middle" fill="#d49cff" font-family="Segoe UI,Arial,sans-serif" font-size="13" font-weight="700">Complete</text></g></g>
<rect x="286" y="532" width="672" height="253" rx="20" fill="#081329" stroke="#49315d"/><text x="312" y="570" fill="#8fa0c0" font-family="Segoe UI,Arial,sans-serif" font-size="13">INVESTOR REVIEW QUEUE</text><g font-family="Segoe UI,Arial,sans-serif"><g fill="#7081a1" font-size="12"><text x="312" y="607">INVESTOR</text><text x="568" y="607">QUALIFICATION</text><text x="760" y="607">SUBSCRIPTION</text><text x="894" y="607">STATUS</text></g><g stroke="#1a2c4c"><path d="M312 624h620M312 674h620M312 724h620"/></g><g fill="#e4eaf6" font-size="14"><text x="312" y="657">North Harbor Partners</text><text x="568" y="657">Complete</text><text x="760" y="657">$2.0M</text><text x="894" y="657" fill="#69d8b4">Approved</text><text x="312" y="707">Silverline Family Office</text><text x="568" y="707">Review</text><text x="760" y="707">$1.2M</text><text x="894" y="707" fill="#f2b035">Pending</text><text x="312" y="757">Tamarind Capital</text><text x="568" y="757">Complete</text><text x="760" y="757">$850K</text><text x="894" y="757" fill="#d49cff">Signature</text></g></g>
<rect x="982" y="532" width="344" height="253" rx="20" fill="#081329" stroke="#49315d"/><text x="1008" y="570" fill="#8fa0c0" font-family="Segoe UI,Arial,sans-serif" font-size="13">AUDIT &amp; COMMUNICATIONS</text><g font-family="Segoe UI,Arial,sans-serif" font-size="14"><text x="1008" y="617" fill="#e4eaf6">Document version published</text><text x="1008" y="641" fill="#8fa0c0">12 Jul · issuer administrator</text><text x="1008" y="687" fill="#e4eaf6">Subscription approved</text><text x="1008" y="711" fill="#8fa0c0">11 Jul · authorized approver</text><text x="1008" y="757" fill="#d49cff">Every material step attributable</text></g></g>
</svg>
