<svg xmlns="http://www.w3.org/2000/svg" viewBox="0 0 1600 1050" role="img" aria-labelledby="title desc">
  <title id="title">AegisIQ connected financial applications</title>
  <desc id="desc">A premium command-center illustration connecting AegisIQ Equity, Stock Ledger, Wealth Ledger, and Investor Portal.</desc>
  <defs>
    <linearGradient id="bg" x1="0" y1="0" x2="1" y2="1"><stop stop-color="#071226"/><stop offset=".55" stop-color="#08142b"/><stop offset="1" stop-color="#020711"/></linearGradient>
    <radialGradient id="glow" cx="50%" cy="44%" r="52%"><stop stop-color="#164899" stop-opacity=".55"/><stop offset=".45" stop-color="#0c2c61" stop-opacity=".22"/><stop offset="1" stop-color="#020711" stop-opacity="0"/></radialGradient>
    <linearGradient id="gold" x1="0" y1="0" x2="1" y2="1"><stop stop-color="#ffda73"/><stop offset=".55" stop-color="#f2b035"/><stop offset="1" stop-color="#bd7620"/></linearGradient>
    <linearGradient id="blue" x1="0" y1="0" x2="1" y2="0"><stop stop-color="#6ca0ff"/><stop offset="1" stop-color="#2e6bff"/></linearGradient>
    
    <pattern id="grid" width="42" height="42" patternUnits="userSpaceOnUse"><path d="M42 0H0V42" fill="none" stroke="#8aa5dc" stroke-opacity=".07"/></pattern>
  </defs>
  <rect width="1600" height="1050" rx="44" fill="url(#bg)"/>
  <rect width="1600" height="1050" rx="44" fill="url(#grid)"/>
  <rect width="1600" height="1050" rx="44" fill="url(#glow)"/>
  <g opacity=".8">
    <circle cx="800" cy="515" r="315" fill="none" stroke="#3e6ecb" stroke-opacity=".22" stroke-width="2"/>
    <circle cx="800" cy="515" r="228" fill="none" stroke="#f2b035" stroke-opacity=".18" stroke-width="2" stroke-dasharray="7 16"/>
    <path d="M490 350C615 250 989 244 1115 353" fill="none" stroke="#2e6bff" stroke-opacity=".38" stroke-width="3"/>
    <path d="M478 691C627 808 986 810 1123 687" fill="none" stroke="#f2b035" stroke-opacity=".26" stroke-width="3"/>
  </g>

  <g>
    <rect x="568" y="300" width="464" height="424" rx="32" fill="#0b1730" stroke="#315895" stroke-opacity=".75"/>
    <rect x="590" y="323" width="420" height="378" rx="24" fill="#071125" stroke="#1f355e"/>
    <text x="620" y="365" fill="#8ea5ce" font-family="Segoe UI,Arial,sans-serif" font-size="20" letter-spacing="3">AEGISIQ LIMITED</text>
    <text x="620" y="410" fill="#f8fbff" font-family="Segoe UI,Arial,sans-serif" font-size="38" font-weight="700">Financial application family</text>
    <text x="620" y="444" fill="#8ea5ce" font-family="Segoe UI,Arial,sans-serif" font-size="18">Research · Ownership · Accounting · Capital</text>
    <g transform="translate(710 482)">
      <circle cx="90" cy="92" r="105" fill="#081a38" stroke="#2e6bff" stroke-opacity=".7" stroke-width="3"/>
      <path fill="url(#gold)" fill-rule="evenodd" d="M90-8 178 176h-41l-22-47H65l-22 47H2L90-8Zm0 80-14 30h28L90 72Z"/>
      <path d="M9 123C48 94 103 71 183 48" fill="none" stroke="url(#blue)" stroke-width="15" stroke-linecap="round"/>
      <path d="M18 52C52 9 122 4 164 36" fill="none" stroke="#2e6bff" stroke-width="8" stroke-linecap="round"/>
    </g>
    <rect x="622" y="659" width="356" height="1" fill="#1d335d"/>
    <text x="622" y="684" fill="#62d4b0" font-family="Segoe UI,Arial,sans-serif" font-size="16" font-weight="600">CONNECTED BY DESIGN</text>
    <text x="827" y="684" fill="#8ea5ce" font-family="Segoe UI,Arial,sans-serif" font-size="16">Clear boundaries. Shared standards.</text>
  </g>

  <g>
    <g transform="translate(82 150)">
      <rect width="370" height="218" rx="24" fill="#0b1730" stroke="#365fbd"/>
      <rect x="18" y="18" width="54" height="54" rx="16" fill="#122b5c"/><text x="45" y="53" text-anchor="middle" fill="#7fa6ff" font-family="Segoe UI,Arial,sans-serif" font-size="20" font-weight="700">EQ</text>
      <text x="92" y="45" fill="#fff" font-family="Segoe UI,Arial,sans-serif" font-size="24" font-weight="700">AegisIQ Equity</text>
      <text x="92" y="70" fill="#7fa6ff" font-family="Segoe UI,Arial,sans-serif" font-size="15">Research intelligence</text>
      <path d="M30 155 88 132l48 18 56-64 53 28 74-73" fill="none" stroke="#5b8cff" stroke-width="5" stroke-linecap="round" stroke-linejoin="round"/>
      <path d="M30 179h308" stroke="#213b6d"/>
      <text x="30" y="201" fill="#8598bd" font-family="Segoe UI,Arial,sans-serif" font-size="14">Catalysts · Risk · Valuation · Reports</text>
    </g>
    <g transform="translate(1148 150)">
      <rect width="370" height="218" rx="24" fill="#0b1730" stroke="#b88325"/>
      <rect x="18" y="18" width="54" height="54" rx="16" fill="#3b2d12"/><text x="45" y="53" text-anchor="middle" fill="#ffd36c" font-family="Segoe UI,Arial,sans-serif" font-size="20" font-weight="700">SL</text>
      <text x="92" y="45" fill="#fff" font-family="Segoe UI,Arial,sans-serif" font-size="24" font-weight="700">Stock Ledger</text>
      <text x="92" y="70" fill="#f2b035" font-family="Segoe UI,Arial,sans-serif" font-size="15">Ownership control</text>
      <g transform="translate(26 100)"><rect width="318" height="76" rx="12" fill="#071125" stroke="#3a3424"/><circle cx="48" cy="38" r="22" fill="none" stroke="#f2b035" stroke-width="9" stroke-dasharray="89 49" transform="rotate(-90 48 38)"/><text x="91" y="30" fill="#eef2fb" font-family="Segoe UI,Arial,sans-serif" font-size="15" font-weight="600">Fully diluted ownership</text><text x="91" y="55" fill="#8796b7" font-family="Segoe UI,Arial,sans-serif" font-size="14">Issuances · Transfers · Certificates</text></g>
      <text x="30" y="201" fill="#8598bd" font-family="Segoe UI,Arial,sans-serif" font-size="14">Approvals · Evidence · Audit history</text>
    </g>
    <g transform="translate(82 694)">
      <rect width="370" height="218" rx="24" fill="#0b1730" stroke="#29866f"/>
      <rect x="18" y="18" width="54" height="54" rx="16" fill="#0b3c34"/><text x="45" y="53" text-anchor="middle" fill="#66e2bd" font-family="Segoe UI,Arial,sans-serif" font-size="20" font-weight="700">WL</text>
      <text x="92" y="45" fill="#fff" font-family="Segoe UI,Arial,sans-serif" font-size="24" font-weight="700">Wealth Ledger</text>
      <text x="92" y="70" fill="#38cfa6" font-family="Segoe UI,Arial,sans-serif" font-size="15">Entity and owner accounting</text>
      <g transform="translate(26 98)"><rect width="318" height="80" rx="12" fill="#071125" stroke="#1b5148"/><text x="20" y="29" fill="#8ea5ce" font-family="Segoe UI,Arial,sans-serif" font-size="13">OWNER NET WORTH</text><text x="20" y="61" fill="#fff" font-family="Segoe UI,Arial,sans-serif" font-size="27" font-weight="700">$12.84M</text><path d="M195 59l30-17 28 9 39-31" fill="none" stroke="#38cfa6" stroke-width="4"/></g>
      <text x="30" y="201" fill="#8598bd" font-family="Segoe UI,Arial,sans-serif" font-size="14">Books · Investments · Statements · Valuations</text>
    </g>
    <g transform="translate(1148 694)">
      <rect width="370" height="218" rx="24" fill="#0b1730" stroke="#8251aa"/>
      <rect x="18" y="18" width="54" height="54" rx="16" fill="#342044"/><text x="45" y="53" text-anchor="middle" fill="#d49cff" font-family="Segoe UI,Arial,sans-serif" font-size="20" font-weight="700">IP</text>
      <text x="92" y="45" fill="#fff" font-family="Segoe UI,Arial,sans-serif" font-size="24" font-weight="700">Investor Portal</text>
      <text x="92" y="70" fill="#c77dff" font-family="Segoe UI,Arial,sans-serif" font-size="15">Capital operations</text>
      <g transform="translate(26 102)"><rect x="0" y="0" width="64" height="60" rx="10" fill="#241a35"/><rect x="82" y="0" width="64" height="60" rx="10" fill="#241a35"/><rect x="164" y="0" width="64" height="60" rx="10" fill="#241a35"/><rect x="246" y="0" width="64" height="60" rx="10" fill="#241a35"/><path d="M64 30h18M146 30h18M228 30h18" stroke="#c77dff" stroke-width="3"/><text x="32" y="36" text-anchor="middle" fill="#fff" font-family="Segoe UI,Arial,sans-serif" font-size="12">Qualify</text><text x="114" y="36" text-anchor="middle" fill="#fff" font-family="Segoe UI,Arial,sans-serif" font-size="12">Review</text><text x="196" y="36" text-anchor="middle" fill="#fff" font-family="Segoe UI,Arial,sans-serif" font-size="12">Approve</text><text x="278" y="36" text-anchor="middle" fill="#fff" font-family="Segoe UI,Arial,sans-serif" font-size="12">Close</text></g>
      <text x="30" y="201" fill="#8598bd" font-family="Segoe UI,Arial,sans-serif" font-size="14">Documents · Subscriptions · Issuer approvals</text>
    </g>
  </g>

  <g fill="#5b8cff"><circle cx="474" cy="274" r="6"/><circle cx="1126" cy="274" r="6"/></g>
  <g fill="#f2b035"><circle cx="474" cy="808" r="6"/><circle cx="1126" cy="808" r="6"/></g>
</svg>
