<svg xmlns="http://www.w3.org/2000/svg" viewBox="0 0 1200 720" role="img" aria-labelledby="title desc">
<title id="title">AegisIQ security and governance control plane</title><desc id="desc">A secure entity-centered mesh showing identity, permissions, encryption, audit history, evidence, and recovery.</desc>
<defs><radialGradient id="bg" cx="50%" cy="50%" r="70%"><stop stop-color="#102a59"/><stop offset=".55" stop-color="#07142b"/><stop offset="1" stop-color="#030812"/></radialGradient><linearGradient id="gold" x1="0" y1="0" x2="1" y2="1"><stop stop-color="#ffda73"/><stop offset="1" stop-color="#d89228"/></linearGradient><filter id="g"><feGaussianBlur stdDeviation="6"/></filter></defs>
<rect width="1200" height="720" rx="36" fill="url(#bg)"/><g stroke="#5b8cff" stroke-opacity=".28" fill="none"><circle cx="600" cy="360" r="250"/><circle cx="600" cy="360" r="170" stroke-dasharray="8 14"/><path d="M350 360H185M850 360h165M600 110V60M600 610v50M445 225 330 142M755 225l115-83M445 495l-115 83M755 495l115 83"/></g><g fill="#5b8cff"><circle cx="185" cy="360" r="6"/><circle cx="1015" cy="360" r="6"/><circle cx="600" cy="60" r="6"/><circle cx="600" cy="660" r="6"/><circle cx="330" cy="142" r="6"/><circle cx="870" cy="142" r="6"/><circle cx="330" cy="578" r="6"/><circle cx="870" cy="578" r="6"/></g>
<circle cx="600" cy="360" r="118" fill="#071329" stroke="#f2b035" stroke-opacity=".7"/><path fill="url(#gold)" fill-rule="evenodd" d="M600 258 685 438h-38l-21-45h-52l-21 45h-38l85-180Zm0 79-14 29h28l-14-29Z"/><path d="M514 410c55-43 114-68 180-84" fill="none" stroke="#2e6bff" stroke-width="13" stroke-linecap="round"/><text x="600" y="494" text-anchor="middle" fill="#8fa6cf" font-family="Segoe UI,Arial,sans-serif" font-size="13" letter-spacing="2">ENTITY-CENTERED CONTROL</text>
<g font-family="Segoe UI,Arial,sans-serif"><g transform="translate(78 295)"><rect width="210" height="130" rx="18" fill="#0b1730" stroke="#355fae"/><text x="22" y="38" fill="#7fa6ff" font-size="13">IDENTITY</text><text x="22" y="72" fill="#fff" font-size="19" font-weight="700">Authenticated access</text><text x="22" y="102" fill="#8fa6cf" font-size="13">Workspace · entity · role</text></g><g transform="translate(912 295)"><rect width="210" height="130" rx="18" fill="#0b1730" stroke="#355fae"/><text x="22" y="38" fill="#7fa6ff" font-size="13">ENCRYPTION</text><text x="22" y="72" fill="#fff" font-size="19" font-weight="700">Protected in transit</text><text x="22" y="102" fill="#8fa6cf" font-size="13">Data handling controls</text></g><g transform="translate(495 22)"><rect width="210" height="130" rx="18" fill="#0b1730" stroke="#8d6b26"/><text x="22" y="38" fill="#ffd36c" font-size="13">APPROVALS</text><text x="22" y="72" fill="#fff" font-size="19" font-weight="700">No silent changes</text><text x="22" y="102" fill="#8fa6cf" font-size="13">Review before material action</text></g><g transform="translate(495 568)"><rect width="210" height="130" rx="18" fill="#0b1730" stroke="#8d6b26"/><text x="22" y="38" fill="#ffd36c" font-size="13">RECOVERY</text><text x="22" y="72" fill="#fff" font-size="19" font-weight="700">Backups &amp; continuity</text><text x="22" y="102" fill="#8fa6cf" font-size="13">Retention by policy</text></g><g transform="translate(220 76)"><rect width="210" height="130" rx="18" fill="#0b1730" stroke="#2d7d69"/><text x="22" y="38" fill="#66e2bd" font-size="13">EVIDENCE</text><text x="22" y="72" fill="#fff" font-size="19" font-weight="700">Documents linked</text><text x="22" y="102" fill="#8fa6cf" font-size="13">Source and support preserved</text></g><g transform="translate(770 76)"><rect width="210" height="130" rx="18" fill="#0b1730" stroke="#714691"/><text x="22" y="38" fill="#d49cff" font-size="13">PERMISSIONS</text><text x="22" y="72" fill="#fff" font-size="19" font-weight="700">Least privilege</text><text x="22" y="102" fill="#8fa6cf" font-size="13">Granular role boundaries</text></g><g transform="translate(220 514)"><rect width="210" height="130" rx="18" fill="#0b1730" stroke="#714691"/><text x="22" y="38" fill="#d49cff" font-size="13">AUDIT</text><text x="22" y="72" fill="#fff" font-size="19" font-weight="700">Attributable history</text><text x="22" y="102" fill="#8fa6cf" font-size="13">Who · what · when · why</text></g><g transform="translate(770 514)"><rect width="210" height="130" rx="18" fill="#0b1730" stroke="#2d7d69"/><text x="22" y="38" fill="#66e2bd" font-size="13">EXPORT</text><text x="22" y="72" fill="#fff" font-size="19" font-weight="700">Portable records</text><text x="22" y="102" fill="#8fa6cf" font-size="13">Customer-controlled data</text></g></g>
</svg>
