<svg xmlns="http://www.w3.org/2000/svg" viewBox="0 0 1400 860" role="img" aria-labelledby="title desc">
<title id="title">AegisIQ Stock Ledger ownership workspace</title><desc id="desc">A private company stock ledger with cap table, certificate controls, approvals, and audit history.</desc>
<defs><linearGradient id="bg" x1="0" y1="0" x2="1" y2="1"><stop stop-color="#151207"/><stop offset=".45" stop-color="#0d1427"/><stop offset="1" stop-color="#030914"/></linearGradient></defs>
<rect width="1400" height="860" rx="38" fill="url(#bg)"/><g opacity=".09" stroke="#f1c666"><path d="M0 110h1400M0 220h1400M0 330h1400M0 440h1400M0 550h1400M0 660h1400M0 770h1400"/><path d="M140 0v860M280 0v860M420 0v860M560 0v860M700 0v860M840 0v860M980 0v860M1120 0v860M1260 0v860"/></g>
<g><rect x="50" y="45" width="1300" height="770" rx="28" fill="#0a1429" stroke="#725b28"/><rect x="50" y="45" width="1300" height="72" rx="28" fill="#151a2c"/><circle cx="88" cy="81" r="9" fill="#f2b035"/><text x="112" y="89" fill="#fff" font-family="Segoe UI,Arial,sans-serif" font-size="23" font-weight="700">AegisIQ Stock Ledger</text><rect x="1138" y="65" width="182" height="34" rx="17" fill="#382b12"/><text x="1229" y="87" text-anchor="middle" fill="#ffd36c" font-family="Segoe UI,Arial,sans-serif" font-size="13">ATTESTED · CURRENT</text>
<rect x="74" y="140" width="190" height="645" rx="18" fill="#071125" stroke="#2e2b24"/><text x="98" y="182" fill="#8f98ad" font-family="Segoe UI,Arial,sans-serif" font-size="13">LEDGER</text><g fill="#dce4f4" font-family="Segoe UI,Arial,sans-serif" font-size="15"><text x="98" y="231">Cap table</text><text x="98" y="281">Shareholders</text><text x="98" y="331">Stock classes</text><text x="98" y="381">Certificates</text><text x="98" y="431">Transactions</text><text x="98" y="481">SAFE &amp; options</text><text x="98" y="531">Scenarios</text><text x="98" y="581">Approvals</text><text x="98" y="631">Audit history</text><text x="98" y="681">Reports</text></g><rect x="86" y="204" width="166" height="40" rx="10" fill="#342a17"/><text x="98" y="231" fill="#fff" font-family="Segoe UI,Arial,sans-serif" font-size="15">Cap table</text>
<rect x="286" y="140" width="682" height="154" rx="20" fill="#081329" stroke="#3d3522"/><text x="314" y="179" fill="#8fa0c0" font-family="Segoe UI,Arial,sans-serif" font-size="14">NEXVAULT CORPORATION</text><text x="314" y="220" fill="#fff" font-family="Segoe UI,Arial,sans-serif" font-size="31" font-weight="700">6,420,000 fully diluted shares</text><text x="314" y="254" fill="#f2b035" font-family="Segoe UI,Arial,sans-serif" font-size="14">Data as of 12 Jul 2026 · last reviewed by Corporate Secretary</text><g transform="translate(812 172)"><circle cx="55" cy="55" r="44" fill="none" stroke="#2f2a1b" stroke-width="16"/><circle cx="55" cy="55" r="44" fill="none" stroke="#f2b035" stroke-width="16" stroke-dasharray="196 80" transform="rotate(-90 55 55)"/><text x="55" y="50" text-anchor="middle" fill="#fff" font-family="Segoe UI,Arial,sans-serif" font-size="20" font-weight="700">72%</text><text x="55" y="71" text-anchor="middle" fill="#9aa6bc" font-family="Segoe UI,Arial,sans-serif" font-size="11">issued</text></g>
<rect x="990" y="140" width="336" height="154" rx="20" fill="#081329" stroke="#3d3522"/><text x="1016" y="179" fill="#8fa0c0" font-family="Segoe UI,Arial,sans-serif" font-size="14">APPROVAL CONTROL</text><text x="1016" y="219" fill="#fff" font-family="Segoe UI,Arial,sans-serif" font-size="20" font-weight="700">2 actions pending</text><rect x="1016" y="241" width="134" height="28" rx="14" fill="#3a2c14"/><text x="1083" y="260" text-anchor="middle" fill="#ffd36c" font-family="Segoe UI,Arial,sans-serif" font-size="12">DUAL APPROVAL</text>
<rect x="286" y="318" width="1040" height="304" rx="20" fill="#081329" stroke="#3d3522"/><text x="314" y="356" fill="#8fa0c0" font-family="Segoe UI,Arial,sans-serif" font-size="14">OWNERSHIP REGISTER</text><g font-family="Segoe UI,Arial,sans-serif"><g fill="#7081a1" font-size="12"><text x="314" y="393">SHAREHOLDER</text><text x="720" y="393">CLASS</text><text x="910" y="393">SHARES</text><text x="1062" y="393">OWNERSHIP</text><text x="1214" y="393">STATUS</text></g><g stroke="#1a2c4c"><path d="M314 410h984M314 460h984M314 510h984M314 560h984"/></g><g fill="#e4eaf6" font-size="14"><text x="314" y="443">Alicia Thornton</text><text x="720" y="443">Common A</text><text x="910" y="443">1,500,000</text><text x="1062" y="443">23.4%</text><text x="1214" y="443" fill="#69d8b4">Active</text><text x="314" y="493">David Park</text><text x="720" y="493">Common A</text><text x="910" y="493">1,200,000</text><text x="1062" y="493">18.7%</text><text x="1214" y="493" fill="#69d8b4">Active</text><text x="314" y="543">Meridian Ventures LP</text><text x="720" y="543">Preferred A</text><text x="910" y="543">840,000</text><text x="1062" y="543">13.1%</text><text x="1214" y="543" fill="#69d8b4">Active</text><text x="314" y="593">Employee Option Pool</text><text x="720" y="593">Options</text><text x="910" y="593">1,155,000</text><text x="1062" y="593">18.0%</text><text x="1214" y="593" fill="#f2b035">Reserved</text></g></g>
<g><rect x="286" y="646" width="326" height="139" rx="18" fill="#081329" stroke="#3d3522"/><text x="312" y="682" fill="#8fa0c0" font-family="Segoe UI,Arial,sans-serif" font-size="13">CERTIFICATE CONTROL</text><text x="312" y="722" fill="#fff" font-family="Segoe UI,Arial,sans-serif" font-size="23" font-weight="700">47 active · 3 reissue</text><text x="312" y="755" fill="#f2b035" font-family="Segoe UI,Arial,sans-serif" font-size="13">No silent status changes</text><rect x="632" y="646" width="326" height="139" rx="18" fill="#081329" stroke="#3d3522"/><text x="658" y="682" fill="#8fa0c0" font-family="Segoe UI,Arial,sans-serif" font-size="13">TRANSACTION HISTORY</text><text x="658" y="722" fill="#fff" font-family="Segoe UI,Arial,sans-serif" font-size="23" font-weight="700">128 recorded actions</text><text x="658" y="755" fill="#69d8b4" font-family="Segoe UI,Arial,sans-serif" font-size="13">Evidence attached to 100%</text><rect x="978" y="646" width="348" height="139" rx="18" fill="#081329" stroke="#3d3522"/><text x="1004" y="682" fill="#8fa0c0" font-family="Segoe UI,Arial,sans-serif" font-size="13">AUDIT PACKAGE</text><text x="1004" y="722" fill="#fff" font-family="Segoe UI,Arial,sans-serif" font-size="23" font-weight="700">Board-ready export</text><text x="1004" y="755" fill="#f2b035" font-family="Segoe UI,Arial,sans-serif" font-size="13">Versioned · timestamped · attributable</text></g></g>
</svg>
