<svg xmlns="http://www.w3.org/2000/svg" viewBox="0 0 1400 860" role="img" aria-labelledby="title desc">
<title id="title">AegisIQ Wealth Ledger accounting workspace</title><desc id="desc">A multi-entity accounting and wealth dashboard showing separate books, investments, statements, owner expense review, and valuation.</desc>
<defs><linearGradient id="bg" x1="0" y1="0" x2="1" y2="1"><stop stop-color="#061d1b"/><stop offset=".42" stop-color="#08172b"/><stop offset="1" stop-color="#030914"/></linearGradient><linearGradient id="area" x1="0" y1="0" x2="0" y2="1"><stop stop-color="#38cfa6" stop-opacity=".42"/><stop offset="1" stop-color="#38cfa6" stop-opacity="0"/></linearGradient></defs>
<rect width="1400" height="860" rx="38" fill="url(#bg)"/><g opacity=".08" stroke="#62e1bd"><path d="M0 120h1400M0 240h1400M0 360h1400M0 480h1400M0 600h1400M0 720h1400"/><path d="M140 0v860M280 0v860M420 0v860M560 0v860M700 0v860M840 0v860M980 0v860M1120 0v860M1260 0v860"/></g>
<g><rect x="50" y="45" width="1300" height="770" rx="28" fill="#0a1429" stroke="#286b5e"/><rect x="50" y="45" width="1300" height="72" rx="28" fill="#0d1f32"/><circle cx="88" cy="81" r="9" fill="#38cfa6"/><text x="112" y="89" fill="#fff" font-family="Segoe UI,Arial,sans-serif" font-size="23" font-weight="700">AegisIQ Wealth Ledger</text><rect x="1120" y="65" width="200" height="34" rx="17" fill="#123b35"/><text x="1220" y="87" text-anchor="middle" fill="#6be1bc" font-family="Segoe UI,Arial,sans-serif" font-size="13">OWNER CONSOLIDATED VIEW</text>
<rect x="74" y="140" width="190" height="645" rx="18" fill="#071125" stroke="#1b403b"/><text x="98" y="182" fill="#8fa0c0" font-family="Segoe UI,Arial,sans-serif" font-size="13">WORKSPACE</text><g fill="#dce4f4" font-family="Segoe UI,Arial,sans-serif" font-size="15"><text x="98" y="231">Overview</text><text x="98" y="281">Entities</text><text x="98" y="331">Books</text><text x="98" y="381">Banking</text><text x="98" y="431">Investments</text><text x="98" y="481">Statements</text><text x="98" y="531">Valuations</text><text x="98" y="581">Imports</text><text x="98" y="631">Owner review</text><text x="98" y="681">Documents</text></g><rect x="86" y="204" width="166" height="40" rx="10" fill="#123b35"/><text x="98" y="231" fill="#fff" font-family="Segoe UI,Arial,sans-serif" font-size="15">Overview</text>
<g><rect x="286" y="140" width="308" height="152" rx="20" fill="#081329" stroke="#24594f"/><text x="312" y="177" fill="#8fa0c0" font-family="Segoe UI,Arial,sans-serif" font-size="13">CONSOLIDATED NET WORTH</text><text x="312" y="224" fill="#fff" font-family="Segoe UI,Arial,sans-serif" font-size="34" font-weight="700">$12,840,000</text><text x="312" y="257" fill="#69d8b4" font-family="Segoe UI,Arial,sans-serif" font-size="14">+7.4% year to date</text><rect x="612" y="140" width="308" height="152" rx="20" fill="#081329" stroke="#24594f"/><text x="638" y="177" fill="#8fa0c0" font-family="Segoe UI,Arial,sans-serif" font-size="13">ACTIVE ENTITIES</text><text x="638" y="224" fill="#fff" font-family="Segoe UI,Arial,sans-serif" font-size="34" font-weight="700">5 businesses</text><text x="638" y="257" fill="#8fa0c0" font-family="Segoe UI,Arial,sans-serif" font-size="14">+ personal · trust · property</text><rect x="938" y="140" width="388" height="152" rx="20" fill="#081329" stroke="#24594f"/><text x="964" y="177" fill="#8fa0c0" font-family="Segoe UI,Arial,sans-serif" font-size="13">AI REVIEW QUEUE</text><text x="964" y="224" fill="#fff" font-family="Segoe UI,Arial,sans-serif" font-size="30" font-weight="700">9 transactions</text><text x="964" y="257" fill="#f2b035" font-family="Segoe UI,Arial,sans-serif" font-size="14">2 owner / business differentials</text></g>
<rect x="286" y="316" width="656" height="306" rx="20" fill="#081329" stroke="#24594f"/><text x="312" y="354" fill="#8fa0c0" font-family="Segoe UI,Arial,sans-serif" font-size="13">BALANCE SHEET TREND</text><text x="312" y="392" fill="#fff" font-family="Segoe UI,Arial,sans-serif" font-size="22" font-weight="700">Assets, liabilities, and owner equity</text><path d="M318 550l65-40 63 18 72-73 68 20 70-92 67 32 69-61 68 24 70-80" fill="none" stroke="#38cfa6" stroke-width="6" stroke-linecap="round"/><path d="M318 550l65-40 63 18 72-73 68 20 70-92 67 32 69-61 68 24 70-80v210H318Z" fill="url(#area)"/><path d="M318 570h596" stroke="#1b3b42"/><g fill="#8299c1" font-family="Segoe UI,Arial,sans-serif" font-size="12"><text x="318" y="596">JAN</text><text x="450" y="596">MAR</text><text x="585" y="596">MAY</text><text x="720" y="596">JUL</text><text x="854" y="596">SEP</text></g>
<rect x="964" y="316" width="362" height="306" rx="20" fill="#081329" stroke="#24594f"/><text x="990" y="354" fill="#8fa0c0" font-family="Segoe UI,Arial,sans-serif" font-size="13">PORTFOLIO ALLOCATION</text><g transform="translate(1036 394)"><circle cx="90" cy="88" r="68" fill="none" stroke="#1d3842" stroke-width="24"/><circle cx="90" cy="88" r="68" fill="none" stroke="#38cfa6" stroke-width="24" stroke-dasharray="220 207" transform="rotate(-90 90 88)"/><circle cx="90" cy="88" r="68" fill="none" stroke="#5b8cff" stroke-width="24" stroke-dasharray="92 335" stroke-dashoffset="-220" transform="rotate(-90 90 88)"/><circle cx="90" cy="88" r="68" fill="none" stroke="#f2b035" stroke-width="24" stroke-dasharray="62 365" stroke-dashoffset="-312" transform="rotate(-90 90 88)"/><text x="90" y="84" text-anchor="middle" fill="#fff" font-family="Segoe UI,Arial,sans-serif" font-size="24" font-weight="700">$6.4M</text><text x="90" y="106" text-anchor="middle" fill="#91a1be" font-family="Segoe UI,Arial,sans-serif" font-size="12">invested</text></g><g font-family="Segoe UI,Arial,sans-serif" font-size="13"><circle cx="1000" cy="584" r="6" fill="#38cfa6"/><text x="1015" y="589" fill="#dce4f4">Public securities</text><circle cx="1132" cy="584" r="6" fill="#5b8cff"/><text x="1147" y="589" fill="#dce4f4">Private entities</text><circle cx="1246" cy="584" r="6" fill="#f2b035"/><text x="1261" y="589" fill="#dce4f4">Other</text></g>
<g><rect x="286" y="646" width="326" height="139" rx="18" fill="#081329" stroke="#24594f"/><text x="312" y="682" fill="#8fa0c0" font-family="Segoe UI,Arial,sans-serif" font-size="13">INTAKE</text><text x="312" y="722" fill="#fff" font-family="Segoe UI,Arial,sans-serif" font-size="23" font-weight="700">All fields preserved</text><text x="312" y="755" fill="#69d8b4" font-family="Segoe UI,Arial,sans-serif" font-size="13">CSV · Excel · Google Sheets</text><rect x="632" y="646" width="326" height="139" rx="18" fill="#081329" stroke="#24594f"/><text x="658" y="682" fill="#8fa0c0" font-family="Segoe UI,Arial,sans-serif" font-size="13">OWNER EXPENSE DIFFERENTIAL</text><text x="658" y="722" fill="#fff" font-family="Segoe UI,Arial,sans-serif" font-size="23" font-weight="700">Business or personal?</text><text x="658" y="755" fill="#f2b035" font-family="Segoe UI,Arial,sans-serif" font-size="13">AI proposes · accountant approves</text><rect x="978" y="646" width="348" height="139" rx="18" fill="#081329" stroke="#24594f"/><text x="1004" y="682" fill="#8fa0c0" font-family="Segoe UI,Arial,sans-serif" font-size="13">REPORTING</text><text x="1004" y="722" fill="#fff" font-family="Segoe UI,Arial,sans-serif" font-size="23" font-weight="700">Separate books, connected view</text><text x="1004" y="755" fill="#69d8b4" font-family="Segoe UI,Arial,sans-serif" font-size="13">Statements · valuation · net worth</text></g></g>
</svg>
